/* XPM */
static char *_dacaceb90c44b96cb8567190901639e9CnlBsvRDXCg5yYK[] = {
/* columns rows colors chars-per-pixel */
"40 40 178 2 ",
"   c #002700",
".  c #002B00",
"X  c #082F02",
"o  c #083104",
"O  c #003D06",
"+  c #113509",
"@  c #123608",
"#  c #1B3B0B",
"$  c #004D00",
"%  c #02430D",
"&  c #005100",
"*  c #0C5404",
"=  c #005C04",
"-  c #005C0B",
";  c #145709",
":  c #155709",
">  c #195A0B",
",  c #005F10",
"<  c #115E14",
"1  c #2A4413",
"2  c #374918",
"3  c #275C11",
"4  c #285E12",
"5  c #33551E",
"6  c #02640B",
"7  c #006C0E",
"8  c #046D14",
"9  c #006D19",
"0  c #17671C",
"q  c #19671D",
"w  c #007A17",
"e  c #04771C",
"r  c #007C19",
"t  c #38671A",
"y  c #3C691D",
"u  c #1C5426",
"i  c #1F6821",
"p  c #1C642D",
"a  c #087828",
"s  c #13732A",
"d  c #2E7232",
"f  c #46501F",
"g  c #415F1D",
"h  c #46631F",
"j  c #475120",
"k  c #4A5420",
"l  c #515B24",
"z  c #595C26",
"x  c #4A6922",
"c  c #496628",
"v  c #516524",
"b  c #546C25",
"n  c #566D2E",
"m  c #4C7026",
"M  c #67632D",
"N  c #676F2E",
"B  c #6F6431",
"V  c #746B33",
"C  c #7A6D35",
"Z  c #7E6C38",
"A  c #737133",
"S  c #7D7937",
"D  c #7F7038",
"F  c #866C3A",
"G  c #886D3B",
"H  c #84733A",
"J  c #8C723E",
"K  c #85793A",
"L  c #8B7B3D",
"P  c #90763F",
"I  c #8F7440",
"U  c #907540",
"Y  c #957A42",
"T  c #987F43",
"R  c #00821B",
"E  c #018C23",
"W  c #098E2B",
"Q  c #13892B",
"!  c #009123",
"~  c #009C27",
"^  c #009629",
"/  c #019A2A",
"(  c #0B8632",
")  c #188331",
"_  c #0C9C3D",
"`  c #139538",
"'  c #1D973B",
"]  c #00A127",
"[  c #00A52A",
"{  c #00AA2B",
"}  c #05A732",
"|  c #0AAC3C",
" . c #13A33B",
".. c #04B335",
"X. c #0E9C40",
"o. c #3F9852",
"O. c #0BB442",
"+. c #0ABD42",
"@. c #21A94D",
"#. c #21B84F",
"$. c #2AB754",
"%. c #34BA5B",
"&. c #458F57",
"*. c #43935A",
"=. c #5F925F",
"-. c #5E9764",
";. c #659967",
":. c #6AAE77",
">. c #70A878",
",. c #0BC347",
"<. c #0EC24C",
"1. c #0DC84C",
"2. c #11C34E",
"3. c #13C453",
"4. c #13CA54",
"5. c #14CB58",
"6. c #12D057",
"7. c #14DA5E",
"8. c #2CC55C",
"9. c #22CE59",
"0. c #30C35F",
"q. c #23D25C",
"w. c #16DD61",
"e. c #3DC167",
"r. c #17E064",
"t. c #18E366",
"y. c #2DE472",
"u. c #2CE974",
"i. c #31E274",
"p. c #40CE6B",
"a. c #42D06D",
"s. c #4DC570",
"d. c #54C674",
"f. c #4FD276",
"g. c #55D37B",
"h. c #938040",
"j. c #9A8144",
"k. c #A28747",
"l. c #A78A49",
"z. c #AA8D4A",
"x. c #71B983",
"c. c #3FF383",
"v. c #6CDE94",
"b. c #4CE987",
"n. c #4DEA89",
"m. c #41F484",
"M. c #47F488",
"N. c #4AF58A",
"B. c #54F38F",
"V. c #5DEC93",
"C. c #61EC96",
"Z. c #64EE99",
"A. c #72E99C",
"S. c #78EEA5",
"D. c #77F7A7",
"F. c #77F7A8",
"G. c #7CF6AA",
"H. c #95CBA3",
"J. c #83F6AE",
"K. c #9CE8B7",
"L. c #9FEABA",
"P. c #87F7B0",
"I. c #86F9B1",
"U. c #8DF9B7",
"Y. c #9AFABE",
"T. c #A3E8BC",
"R. c #9EFBC1",
"E. c #BAE2C8",
"W. c #A4FAC5",
"Q. c #ABFCCA",
"!. c #B1FDCE",
"~. c #B3FED1",
"^. c #BBFED5",
"/. c #C3EAD2",
"(. c #C5FDDC",
"). c #CAFFE0",
"_. c #DBFFEB",
"`. c #E1FFF1",
/* pixels */
"j.j.j.j.T U U U U U T j.j.j.T U U U U U U U U U J G F J U Y k.z.k.j.T G F J U U ",
"j.j.j.j.T U U U U U T j.j.j.T U U U U U U U U U J G F J U Y k.z.k.j.T G F J U U ",
"j.j.T Y Y U U U U U k.k.j.Y Y U U Y Y Y Y Y Y Y Y G F J U U j.j.j.k.k.T T U J J ",
"j.j.Y U U U U U U Y l.z.j.I U U U Y j.j.j.j.j.j.T G F J U U U I j.z.z.z.z.T F F ",
"T T Y U U U Y Y Y Y k.z.j.U J H H K L L L L L L L G G J Y U U U j.k.k.k.k.Y F F ",
"U U U U U k.k.k.k.k.j.j.Y U H 3 : > > > > > > > 4 D I T k.k.U U U Y Y Y Y J F F ",
"U U U U Y l.z.z.z.z.j.j.Y U D * & & & & & & & & : H U j.z.k.Y U U U U U U J F F ",
"U U J J J Y T T j.j.Y Y A v n ;.;.o.' ' ' ' ` W Q x v S z.k.Y U U U U Y Y P J J ",
"U U J F F F F J U U U U h & q /.`.U.c.m.m.m.u.w.5.6 & b z.l.Y U U U U T j.Y U U ",
"U U J G G G G J U J H H c < d /._.U.c.m.m.m.y.7.4.8 - m j.j.Y U U J U T T Y U U ",
"U U Y T T U J I U H 4 : ;.E.E.~.~.G.c.m.m.m.q.....2.4.) # 1 H j.J G G U U U U U ",
"U U Y j.T U U U U D * $ >.`._.~.!.D.c.m.m.m.9.{ ..7.t.(   + H j.P F G J U U U U ",
"U U Y j.T Y Y A b n =.-.H.).(.!.!.F.m.m.m.m.9.{ { ,.1._ a s v z V P J J J J U U ",
"U U Y j.j.j.j.x & i /._.(.Q.Q.!.!.F.c.m.m.m.9.{ { { { ,.r.5.% . k j.T G F J U U ",
"U U Y T T T T x & i /._.^.W.W.W.W.D.M.N.N.N.9.{ { { [ +.7.4.% . k j.T G F J Y Y ",
"U U U U U U U x & q T.^.S.y.i.i.i.Z.R.Y.Y.R.f.{ { ^ ^ [ ..} O . f U U G F Y k.k.",
"U U U U U U U h & q K.!.V.7.w.w.7.C.!.!.!.~.g.{ [ ^ ^ ~ { ~ O . f U J G F T z.z.",
"Y Y Y U U U U h & q K.~.C.w.w.w.w.C.!.Q.R.R.f.{ [ E E ~ { ~ O . f U U Y T j.k.k.",
"j.j.Y U U U U h & q K.~.C.w.w.w.w.C.!.Q.P.J.a.{ [ R w ! { ~ O . f U Y k.z.k.j.j.",
"j.j.Y U U J U h & q K.~.C.w.w.w.w.C.!.Q.P.J.a.{ [ R w ! { ~ O . f U Y k.z.k.T T ",
"j.j.Y U J G G g & q K.~.C.w.w.w.w.C.!.Q.P.J.a.{ [ R w ! { ~ O . k T j.l.z.j.U U ",
"j.j.Y U J G F g & q K.~.C.w.w.w.w.C.!.Q.P.J.a.{ [ R w ! { ~ O . k j.j.z.z.j.U U ",
"Y Y Y Y Y G F g & q K.~.C.w.w.w.w.V.R.Y.J.J.a.{ [ R w / +.| % . j Y Y j.j.Y U U ",
"U U Y j.T G F g & q K.~.C.w.w.w.w.b.J.J.J.J.a.{ [ R w | w.5.% . f U U I I U U U ",
"U U Y j.T J G h & q K.~.C.w.w.w.w.b.J.J.G.J.p.[ ] R w | w.5.% . j Y Y Y Y U U U ",
"T T T j.j.T T x & q K.~.C.w.w.w.w.b.J.G.B.N.$.R R E E O.w.5.% . l l.k.k.k.j.U U ",
"j.j.j.j.j.j.j.x & 0 L.~.C.w.w.w.w.n.I.G.N.m.#.w r ! ! O.t.5.% . l z.z.z.z.j.U U ",
"Y Y T j.T Y Y N t m :.x.e.1.1.<.<.0.d.s.8.8. .R E $.%.@._ ` 5 2 B k.k.j.j.Y U U ",
"U U Y j.T U U Y j.K : & r { [ ^ ^ R w w w w R ^ _ A.I.*.. + Z U Y j.T U U U U U ",
"U U Y j.j.Y U Y T K > * r [ [ ^ ^ E r r w w E ^  .v.S.&.X # Z U Y T T U U U U U ",
"U U j.z.k.j.T Y U J V V y 6 7 ~ [ ^ E E r w } 6.3.p u c C C J U U U U U U Y T T ",
"U U j.z.z.j.j.Y U U U Y h & = ] { ] ^ ! r w | t.5.%   k j.j.U U U U U U U Y j.j.",
"U U j.z.k.T Y Y U U U U N y t e r e 9 9 , - a X.` 5 2 M P J J J P Y Y Y Y Y Y Y ",
"U U j.z.k.Y U U U U U I j.z.h.+ . . . . . . . . + H j.J F F F F J j.j.j.j.Y U U ",
"U U j.z.k.Y U U U U U Y j.z.h.# o o o o o o o o # H T J G G G G P j.j.T T Y U U ",
"U U Y j.j.U U U U U k.k.k.j.T C V V B B B B V V C G G J J J J J Y j.T U U Y T T ",
"U U Y j.T U U U U Y k.z.k.j.j.j.j.T U U U U T j.T G F J U U U U Y j.T U U Y j.j.",
"U U Y Y Y U U Y Y T k.z.k.Y Y Y Y Y Y Y U U Y Y Y J J J U U Y Y Y Y Y U U Y Y Y ",
"U U U U U U U Y j.j.l.z.j.I U U U Y j.T U U U U U U U U U U T j.Y U U U U U U U ",
"U U U U U U U Y j.j.l.z.j.U U U U Y j.T U U U U U U U U U U T j.Y U U U U U U U "
};
