/* XPM */
static char *_9dd5794cc364f41fbfc0a8db7d6272eawmkEZPJ3biEEsZR[] = {
/* columns rows colors chars-per-pixel */
"40 40 124 2 ",
"   c #030106",
".  c #06040C",
"X  c #08050F",
"o  c #070211",
"O  c #0A0612",
"+  c #0C0915",
"@  c #0D041C",
"#  c #0F0A19",
"$  c #10061E",
"%  c #110C1D",
"&  c #1D1610",
"*  c #1F1911",
"=  c #231C14",
"-  c #261D1D",
";  c #2D231D",
":  c #30261E",
">  c #342B1E",
",  c #0E012A",
"<  c #130625",
"1  c #150E22",
"2  c #180F26",
"3  c #12032B",
"4  c #160A29",
"5  c #190C2C",
"6  c #171024",
"7  c #181126",
"8  c #1B132B",
"9  c #160335",
"0  c #180437",
"q  c #1B0D32",
"w  c #16013F",
"e  c #190539",
"r  c #1F1531",
"t  c #281F22",
"y  c #211732",
"u  c #241835",
"i  c #24123B",
"p  c #2C2223",
"a  c #2F2429",
"s  c #312723",
"d  c #342A22",
"f  c #392E25",
"g  c #33272F",
"h  c #372C28",
"j  c #3A2E2B",
"k  c #3D302B",
"l  c #40342D",
"z  c #1B0347",
"x  c #1F044C",
"c  c #23054F",
"v  c #240553",
"b  c #280757",
"n  c #260855",
"m  c #24025C",
"M  c #29065C",
"N  c #2B0A58",
"B  c #2D0858",
"V  c #2E0A5C",
"C  c #310A59",
"Z  c #260260",
"A  c #2E0A61",
"S  c #2E0668",
"D  c #310766",
"F  c #300A63",
"G  c #300B63",
"H  c #330C62",
"J  c #320C64",
"K  c #350E67",
"L  c #32076A",
"P  c #340B6C",
"I  c #380D6C",
"U  c #380C6D",
"Y  c #390E6C",
"T  c #3A0E6D",
"R  c #3D0E6D",
"E  c #361065",
"W  c #3D1169",
"Q  c #3D116D",
"!  c #360B71",
"~  c #3B0E70",
"^  c #3A0C74",
"/  c #3E0D7B",
"(  c #3E1173",
")  c #400D77",
"_  c #410E78",
"`  c #410E7C",
"'  c #401174",
"]  c #431179",
"[  c #441279",
"{  c #44127C",
"}  c #46137C",
"|  c #48137B",
" . c #836A3B",
".. c #856B3A",
"X. c #876E3B",
"o. c #876E3D",
"O. c #896F3D",
"+. c #8B713E",
"@. c #8C733F",
"#. c #8E743F",
"$. c #8E7440",
"%. c #917640",
"&. c #927941",
"*. c #947B41",
"=. c #977F43",
"-. c #987F43",
";. c #997F43",
":. c #998043",
">. c #A28747",
",. c #A78A49",
"<. c #AA8D4A",
"1. c #440E82",
"2. c #480F87",
"3. c #490F88",
"4. c #461182",
"5. c #4B1481",
"6. c #4A1484",
"7. c #4B118A",
"8. c #50178C",
"9. c #55188D",
"0. c #561694",
"q. c #551892",
"w. c #5A1995",
"e. c #5E1A9B",
/* pixels */
":.:.=.d 2 y # 6 % X 7 . % u % % 8 . 1 + . y 8 + 8 + # 1 . 7 y # 6 1 X 6 =  .%.%.",
":.:.=.d 8 % + . X O .   6 6 # . . O X   # 8 % O . O O . . 8 % + . X O . &  .%.%.",
":.:.*.d + 1 8 % + % X . + % 8 4 O 1 O . O # 6 8 O % + X X # % 8 % + % . = X.+.+.",
":.:.&.s % 8 1 7 . . 7 + O 8 1 7 +   1 1 X 8 8 6 1   + 7 O % 8 1 7 . . 4 s @.....",
"-.-.&.h O X + 1 + + + % # X O 1 # O + + % X X % % O + O % O X + 1 + + O p @.....",
"%.%.#.d 2 O . % u 4 4 # 6 % . + y 8 1 % % 2 X O 7 u 1 1 # 8 + . % u 6 1 p  .....",
"%.%.@.j 8 O + % % . O + 8 # O # % O X + 6 1 X # % + . + % 8 O O % % . O -  .....",
"%.%.+.;   . O % % O % 1 @ O O 4 @ O o o $ @ o 1 1 O . . O . . O % % O # a o.+.+.",
"%.%.O.; O 1 O 1 8 + y 5 C B x v b b x H R G x v v c w 3 . + 1 O 1 8 + r a +.%.%.",
"%.%.O.; r 8 + + O . O $ W H U _ ~ ' G ] 5.U ^ ) U U v 3 . r 8 # + O . O = +.%.%.",
"%.%.%.d # + 1 O + 1 . @ N ' ' G G ] [ K P } ] G A U D 3 . % + 1 O + 1   * o.%.%.",
"%.%.&.d # r 8 1 X X 1 4 H ] A U ` U } 1./ 4.G U _ G L e . # r 8 6 X X 1 p o.%.%.",
"%.%.&.f + + % 8 X X # 4 H _ L _ e.` ^ 1.^ 1.P / q.^ Z 9 + # + # 8 X X # - o.%.%.",
"%.%.&.d # X X # 8 1 % 5 H } 8.7.e.] } / ^ 6.q.2.w.~ S e O % X X # 8 6 % t  .%.%.",
"%.%.%.k r O O % 7 O % 5 [ ( } 7.} } q.1.q.} 4.7.] ^ _ 0 % y + O % 8 O % -  .*.&.",
"%.%.@.d O . + % # . X < ' 6.^ / / 7.U L 7.q.^ ` ^ ` m , O + . + % # . . - #.,.,.",
"%.%.$.: . O O % 8 # y i | 4.! / ` 1.P 6.0.7.^ ` / ^ m e O . O O % 8 # r a $.<.<.",
"*.*.%.: 8 r # % # . % < | ~ _ 3.1.6.! 7.w.` ` 7.} _ m 0 . 8 y # % # . % = &.>.>.",
":.:.&.d 1 + + . O %   @ A } } U ! 6.4.U ^ 6.6.U U ] P 3 . 6 # # . O %   = =.:.:.",
":.:.&.s + 8 8 1 O + # < J } L ^ 1.^ 4.3.` 7.U ^ ` L P e X + 8 8 1 O + # ; =.-.-.",
":.:.&.d % 6 % 8 . . 1 4 H ` P ` e.` / 1./ 7.! } w.^ Z e O % 7 % 8 X . 1 p &.%.%.",
":.:.&.d O . O % 1 % + 5 H 4.8.3.e.} } / ( 7.q.7.w.( S e + O . O % 1 % O s &.%.%.",
"*.*.&.j r + O % y % 6 q [ ( 5.7.} 4.q.1.q.} 6.7.] ~ ` e # y + X % y % 4 a @.%.%.",
"%.%.&.f % X + % + . . < ' 6.^ / / 7.U L 7.q.! / ^ 1.m , O % X + % + . . - o.%.%.",
"%.%.&.d   . O % 7 + 8 i | 1.! / ` 1.P 6.0.7.^ / ^ ^ m e O   . O % 7 + 8 g O.%.%.",
"-.-.=.: 1 8 + 6 1 O 8 4 | ~ _ 2.1.4.! 7.w.} ` 2._ _ m e . 1 8 # 1 1 O 8 ; %.%.%.",
":.:.=.d 8 % + . X O . @ V [ } U ! 6.} U ! 5.4.U L ' L 3 . 8 % + . X O . = &.%.%.",
"*.*.*.d + % 8 % + % X @ K } G U ` ! 4.1._ 7.P U / G P e X # % 8 % + % . = @.%.%.",
"%.%.&.d % 8 1 7 . . 7 4 V ^ L _ w./ ! 1.^ 1.P ^ q.^ m 9 X % 8 1 7 . . 6 p o.%.%.",
"%.%.&.j O X + 1 + + + 4 V [ 5.` q.' ^ ^ U 4.6.` 9.U M 9 + + X + 1 + + O p O.%.%.",
"%.%.-.k 5 O X % u 4 1 5 W E ' } ( ^ 5.^ 5.Q ' } Q K U 9 + 8 + X % u 6 1 p +.-.-.",
"%.%.-.l 8 O + % % . O @ B U b A V U n v U ' b A N G z @ + 8 O + % % . O - +.:.:.",
"%.%.-.f   . O % % O % 1 @ @ @ < q 5 < q 3 @ @ < 5 q @ 4 + . . O % % O # a +.*.*.",
"%.%.-.> O 1 O 1 8 + y # X 1 + # 8 + 8 6 . % % O 8 % % 8 X + 1 O 1 8 + r a +.%.%.",
"%.%.-.f r 8 + + O . O   7 r % O + . O . + u 6 O + X X O . y 8 # + O . O = +.%.%.",
"%.%.&.f # # 1 O + 1 . . % + 1 % X 6 X   + # % % . % +   X % + 1 O + 1   * +.-.-.",
"%.%.&.d # r 8 6 X X 6 + O 8 8 7 O . % % . 7 8 8 % . + 6 X # r 8 6 X X 1 p +.:.:.",
"%.%.%.h + + # 8 X X # # # # + 8 # . # # % # + 1 6 . + # % # # # 8 X X # t +.*.*.",
"%.%.$.d # X X # 8 6 % % % O . + 8 8 % % % # . O 1 8 1 % # % X . # 8 6 % p O.%.%.",
"%.%.@.j u + O % 8 + 1 % y 1 . + 8 % % 1 8 8 X O 6 4 + 1 % u + X % 8 + 1 p o.%.%."
};
