/* XPM */
static char *_dcde32dcc17446289526be5afb04b32UXzV0aNHZLIdUReP[] = {
/* columns rows colors chars-per-pixel */
"40 40 107 2 ",
"   c #998043",
".  c #987F43",
"X  c #917640",
"o  c #907540",
"O  c #8F743F",
"+  c #866C3B",
"@  c #856B3A",
"#  c #8B703D",
"$  c #937841",
"%  c #A78A49",
"&  c #AA8D4A",
"*  c #A28747",
"=  c #977E42",
"-  c #876D3B",
";  c #AB8E4A",
":  c #967D42",
">  c #846A3A",
",  c #8A703D",
"<  c #977D42",
"1  c #947A41",
"2  c #927741",
"3  c #9F8446",
"4  c #9B8144",
"5  c #927841",
"6  c #957B42",
"7  c #937941",
"8  c #927641",
"9  c #9B8044",
"0  c #9D8145",
"q  c #A08546",
"w  c #997D43",
"e  c #987C42",
"r  c #8F7440",
"t  c #AB8E4B",
"y  c #937741",
"u  c #967A42",
"i  c #A68948",
"p  c #A98C49",
"a  c #9C8045",
"s  c #987F42",
"d  c #886F3C",
"f  c #8D723E",
"g  c #A78B49",
"h  c #967B41",
"j  c #846B3A",
"k  c #A48848",
"l  c #9C8344",
"z  c #9B8244",
"x  c #967B42",
"c  c #90773F",
"v  c #8E733F",
"b  c #9B7F44",
"n  c #8C713E",
"m  c #A88B49",
"M  c #957B41",
"N  c #8E743F",
"B  c #8F763E",
"V  c #9A8143",
"C  c #8D733F",
"Z  c #9A7F44",
"A  c #997E43",
"S  c #8D733E",
"D  c #8F763F",
"F  c #8F753F",
"G  c #90753F",
"H  c #998143",
"J  c #8B713D",
"K  c #A38747",
"L  c #9A8043",
"P  c #947941",
"I  c #967C42",
"U  c #896E3C",
"Y  c #A58948",
"T  c #886D3B",
"R  c #846A39",
"E  c #977C42",
"W  c #8F753E",
"Q  c #9E8245",
"!  c #A18646",
"~  c #9D8345",
"^  c #8C723E",
"/  c #8A6F3D",
"(  c #947B41",
")  c #8E753E",
"_  c #927640",
"`  c #886E3B",
"'  c #866C3A",
"]  c #977B42",
"[  c #A88C49",
"{  c #977D43",
"}  c #947B42",
"|  c #9D8144",
" . c #987E43",
".. c #90763F",
"X. c #9A8044",
"o. c #AB8D4A",
"O. c #957A42",
"+. c #937940",
"@. c #977B43",
"#. c #89703C",
"$. c #886E3C",
"%. c #907440",
"&. c #A68A48",
"*. c #91773F",
"=. c #896F3C",
"-. c #9A8144",
";. c white",
/* pixels */
"        . X o o o X .       . X o o o o o o o o O + @ # o $ % & *   = - @ # o o ",
"        . X o o o X .       . X o o o o o o o o O + @ # o $ % ; *   : - > , o o ",
"    < 1 1 X o o o 2 3 * 4 1 1 X o 5 6 6 6 6 6 6 7 - @ # o 8 9 0 3 * q w e X , # ",
"    1 o o o o o o $ % ; 0 r o o o 6             = - @ , o o o r 0 ; & ; t e > @ ",
". . 1 o o y $ $ $ u i p a o o o o 1 . . = < s   = d + f $ y o o 9 % % % g h j @ ",
"X X X o y k % % % i l z x o o o o X X o d - c   . o v b g k y o 8 $ $ $ $ n @ @ ",
"o o o o $ m ; ; ; p z   M o o o o o o N + > B V . X o 0 ; % $ o o o o o o , @ @ ",
"o o C , n h e Z 0 a x M 5 o 8 9 0 A 1 7 n , S D F o o 0 ; % $ o o o X 1 6 G , # ",
"o o , @ @ > > , o o o o o o $ m ; *   . X o , > + O o 0 ; % $ o o o X . H 6 o o ",
"o o n - - + + J o o X X X X $ K i q z L X o # @ + o X a g k P X o O o < . 1 o o ",
"o o 7 = I o O r o X = . . . : J U w p Y $ o # @ - I . x $ P = . F + T o X X o o ",
"o o 6   . X o o o X .       = - R E ; % $ o , @ - = V 6 o X .   W > + O o o o o ",
"o o 6   . 6 1 A 0 Q ! * ~   = ^ / Z ; % $ o C , n 7 6 G , ^ =   ( W ) J , C o o ",
"o o 6         * ; ; & ; *   . X o 0 ; % $ o o o o o o , @ - =     V = - @ , o o ",
"o o 1 . . . . 3 % % % % q   . X o 9 g k _ N X $ $ X X J @ - I . . . I - @ n $ $ ",
"o o X X X X X 2 $ $ $ $ I   . X o 8 $ _ ` ' ] m Y L . ) @ + o X X X o + > h g % ",
"o o o o o o o o o o o o 6 V . X o o o N + > E ; [ z   B > + O o o o O ' R E ; & ",
"6 6 5 o o o o 5 6 1 X o G B ) J , C o r J , Z ; g { } G , # # , C o X ] E | * * ",
"    6 o o o o 6   . X o , > @ @ @ , o o o o 0 ; % $ o o o O + j , o $ g ; *     ",
"    6 o o O O 1   . X o n - - + + n X X $ $ Q [ Y P X X o O - + n X P % & !  .. ",
"    6 o O - + ..  . X o 7 = I o O 7 . L Y % ! 4 4 . . 1 o o O O 7 . X.m o.Q X X ",
"    6 o O + @ W   . X o O.  . X o 6   z p ; *         1 o o o o 6   z [ ; 0 o o ",
"6 6 6 6 7 - > +.* q I 1 <   . X o 5 6 6 E e +.W c s   < 1 1 X o 5 M x a 0 @.o o ",
"o o 1 H = - > e ; [ z       . X o o o O ' > j > - =       . X o o o o r r o o o ",
"X X 6   = #.- w ; m z   . . = X o o o O - + + + $.: . .   . X o 8 $ $ $ $ 8 o o ",
". . .     = : q & m z   6 X X o o o o o O O O O O X X 6   . X o 9 % % % % 9 o o ",
"              * o.[ z   1 o o o o o o o o o o o o o o 6   . X o 0 ; & ; ; 0 o o ",
"6 1 <   . 6 1 4 * q I 1 6 6 6 6 6 5 o 8 9 0 A 1 1 X o 5 6 1 X o A * ! Q 0 @.o o ",
"o o 1   . X %.1   . X o 6         6 o $ g ; *   . X o o o o o o 1   . X o o o o ",
"o o x z L 5 X 6 . = X o 1 . .     6 X P k % ! 4 X.P $ 2 X X o o 1 . = X o X X X ",
"o o a [ &.L . 6 X X o o X X 2 .   . . = P y Q [ m % % 3 . = X o X X X o o 1 . . ",
"o o 0 ; [ z   6 o o o o o r X .       . X r 0 ; o.& ; *   . X o o o o o o 6     ",
"o o 0 ; g { 1 5 o o o o @.0 9 *.W D B F o o @.0 Q ! *  .W ) J , G 6 6 6 6 6 6 6 ",
"o o 0 ; % $ o o o o o r 0 ; i =.> @ @ + O o o r X .   W > @ @ > W         O.o o ",
"o o a p Y $ o o o o y $ Q p k J - - + - O o X X 2 : = ) + + + + ..    . . 6 X X ",
"o o x z L X o o o y k % ! 4 -.= = 7 O O o o 1 . : #.- J O O O O 1   . 2 X 6 . . ",
"o o M   . X o o o $ % ; *       H 6 o o o o 6 V = - > , o o o o 6   . X o 6     ",
"o o 5 6 1 X o 5 1 { g & 3 1 6 6 6 6 6 1 X o 5 6 7 n , C o X 1 6 6 6 1 X o 5 6 6 ",
"o o o o o o o 6   z m o.0 r o o o 6   . X o o o o o o o o X .   6 o o o o o o o ",
"o o o o o o o 6   z m o.0 o o o o 6   . X o o o o o o o o X .   6 o o o o o o o "
};
