/* XPM */
static char *f1c68bd6449f4eedca6ad6ade9cca718Rg8Wt17i7A8a8z1X[] = {
/* columns rows colors chars-per-pixel */
"40 40 150 2 ",
"   c #1C1615",
".  c #231917",
"X  c #251B19",
"o  c #291E1B",
"O  c #2E211E",
"+  c #342616",
"@  c #3A2417",
"#  c #3C2519",
"$  c #3D2C1D",
"%  c #203210",
"&  c #202020",
"*  c #2D2522",
"=  c #322521",
"-  c #342823",
";  c #392A26",
":  c #3D2D29",
">  c #353127",
",  c #3A3020",
"<  c #42291D",
"1  c #402D25",
"2  c #413226",
"3  c #4A3227",
"4  c #44322E",
"5  c #4B342C",
"6  c #473E2D",
"7  c #543B25",
"8  c #573D2D",
"9  c #5C3B29",
"0  c #473430",
"q  c #4A3631",
"w  c #4D3934",
"e  c #413B3A",
"r  c #533C35",
"t  c #583E33",
"y  c #623C2B",
"u  c #22551D",
"i  c #346426",
"p  c #474134",
"a  c #4C413E",
"s  c #5C4135",
"d  c #5F4D31",
"f  c #5C433B",
"g  c #544D3E",
"h  c #70442D",
"j  c #624435",
"k  c #6A4531",
"l  c #654A36",
"z  c #6C4832",
"x  c #634638",
"c  c #644A38",
"v  c #704D36",
"b  c #744E3E",
"n  c #645334",
"m  c #685534",
"M  c #6E5833",
"N  c #6C543A",
"B  c #6F5938",
"V  c #715037",
"C  c #735D36",
"Z  c #73513F",
"A  c #7A513E",
"S  c #745C3B",
"D  c #776337",
"F  c #786337",
"G  c #7A643A",
"H  c #4C4949",
"J  c #504B47",
"K  c #5B5955",
"L  c #614741",
"P  c #654A44",
"I  c #6C4E45",
"U  c #6B4F48",
"Y  c #6D514A",
"T  c #665D4A",
"R  c #695F4A",
"E  c #735545",
"W  c #7A5645",
"Q  c #765A46",
"!  c #7D5846",
"~  c #73554C",
"^  c #7A564B",
"/  c #7E5A4B",
"(  c #775850",
")  c #7D5E55",
"_  c #7F5E58",
"`  c #5A6D41",
"'  c #7D6443",
"]  c #7F624B",
"[  c #797A5F",
"{  c #707968",
"}  c #826639",
"|  c #856B3B",
" . c #896E3D",
".. c #87713D",
"X. c #8D723E",
"o. c #90763F",
"O. c #805E47",
"+. c #845D4C",
"@. c #835F54",
"#. c #846B43",
"$. c #8B6F44",
"%. c #86604E",
"&. c #89624E",
"*. c #867345",
"=. c #8F7440",
"-. c #8F7840",
";. c #907540",
":. c #957A42",
">. c #987F43",
",. c #967349",
"<. c #997748",
"1. c #9B7B4A",
"2. c #846152",
"3. c #8C6450",
"4. c #84635C",
"5. c #8D6F5F",
"6. c #9A6F56",
"7. c #9A6D5B",
"8. c #9E7B51",
"9. c #9E7159",
"0. c #A0725A",
"q. c #A67A5A",
"w. c #AD7F5D",
"e. c #AD7C62",
"r. c #B27D65",
"t. c #B47F69",
"y. c #9A8043",
"u. c #9D8145",
"i. c #9F8446",
"p. c #A08347",
"a. c #A28747",
"s. c #A38648",
"d. c #A2804F",
"f. c #A48848",
"g. c #A88B49",
"h. c #AB8E4A",
"j. c #AB8E4B",
"k. c #AB8952",
"l. c #AB805B",
"z. c #AE815E",
"x. c #AE8262",
"c. c #B68266",
"v. c #B3806B",
"b. c #B58169",
"n. c #B6816D",
"m. c #B8836B",
"M. c #B9856B",
"N. c #BC876B",
"B. c #B9846C",
"V. c #9A9487",
/* pixels */
"y.y.y.y.>.;.;.;.;.;.>.y.y.y.>.;.;.X.;.;.X.;.;.;.X.| | X.;.:.f.h.a.y.>.| | X.;.;.",
"y.y.y.y.>.;.;.;.;.;.>.y.y.y.>.;.;.<.l.z.1.;.X.;.X.| | X.;.:.f.h.a.y.>.| | X.;.;.",
"y.y.>.:.:.;.;.;.;.;.i.a.y.:.:.<.q.t.t.t.t.e.8.:.:.| | X.;.;.y.u.i.a.a.>.>.;.X.X.",
"y.y.:.;.;.;.;.;.;.:.f.h.u.<.l.c.t.t.r.r.r.r.t.x.d. .| X.;.;.;.=.u.h.h.h.h.>.| | ",
">.>.:.;.;.;.:.:.:.:.f.k.x.b.M.M.M.M.M.m.m.c.t.n.b.w.,.X.:.;.;.;.y.f.f.f.f.:.| | ",
";.;.;.;.;.f.f.f.f.f.>.O.7.v.N.M.m.M.M.M.M.M.N.B.b.t.6.1.f.f.;.;.;.:.:.:.:.X.| | ",
";.;.;.;.:.g.h.h.h.h.>.c f W 9.b.b.r.n.n.M.M.M.r.9.3.&.1.h.f.:.;.;.;.;.;.;.X.| | ",
";.;.X.X.X.:.>.>.u.u.;.c t s j W 9.b.B.B.b.e.6.3.%.&.&.1.h.f.:.;.;.;.;.:.:.o.X.X.",
";.;.X.| | | | X.;.;.X.l s s s s j W 0.e.7.3.&.&.+.%.&.1.h.f.:.;.;.;.;.>.y.:.;.;.",
";.;.X.| | | | X.;.;.X.l s s s t s s x ! +.&.&.&.+.+.%.<.g.f.:.;.;.X.;.>.>.:.;.;.",
";.;.:.>.>.;.X.=.;.;.:.l s s s t t s j / &.&.&.&.&.&.2.;.:.:.>.>.X.|  .;.;.;.;.;.",
";.;.:.y.>.;.;.;.;.;.:.c s s s t s s j O.&.&.&.&.&.W / ;.;.;.>.y.X.| | X.;.;.;.;.",
";.;.:.y.>.:.:.>.u.u.>.l s s s t s s j / &.&.&.W 8 $ E =.X.X.>.y.:.X.X.X.X.X.;.;.",
";.;.:.y.y.y.y.a.h.h.s.l t s s s s s f / @.W 8 + % { 5.| | | >.y.y.y.>.| | X.;.;.",
";.;.:.>.>.>.>.i.f.f.p.l t s s s s s f ^ t + $ s i [ W } | | >.>.>.>.>.| | X.:.:.",
";.;.;.;.;.;.;.;.:.:.=.j t s s s s s f ~ g u m A V A v } | | ;.;.;.;.;.| | :.f.f.",
";.;.;.;.;.;.;.;.;.;.X.j r s s s s s f 2.V.` 7 y h z z } | | X.;.;.;.X.| | >.h.h.",
":.:.:.;.;.;.;.:.:.:.=.S s t t t s s f Z +.b < # y k v  .X.X.X.X.X.;.;.:.>.u.a.a.",
"y.y.:.;.;.;.;.:.y.>.;.;.} l r t t s s k A y # # 9 k E $.;.X.| | X.;.:.f.h.a.y.y.",
"y.y.:.;.;.X.X.:.y.>.;.;.X.M = 4 t s s k W b < # 9 k E ] =.X.| | X.;.:.f.h.a.>.>.",
"y.y.:.;.X.| | o.y.>.;.;.:.F - f U f t k j 5 # @ 9 k E ~ #.;.X.X.:.>.y.g.h.u.;.;.",
"y.y.:.;.X.| | X.y.>.;.;.=.d - f Y U r r r f r 3 j I ~ ~ Q =.;.;.:.y.y.h.h.u.;.;.",
":.:.:.:.:.| | :.a.a.>.:.X.2 o : Y ( U f U Y P ~ @._ ) E #.:.;.;.:.:.:.u.u.:.;.;.",
";.;.:.y.>.| | >.h.h.y.y.y.n O = L ( U I ~ ( f Y 4.) ' =.y.>.;.;.;.;.;.=.=.;.;.;.",
";.;.:.y.>.X.| >.h.g.y.y.y.F O = 4 ~ ~ ~ _ 4.P w N X.>.y.y.>.;.;.;.:.:.:.:.;.;.;.",
">.>.>.y.y.>.>.a.h.g.y.y.>.C O = = f ~ ( _ Y r 0 N ;.;.:.y.>.;.;.y.f.f.f.f.y.;.;.",
"y.y.y.y.y.y.y.a.h.h.y.y.>.C O = O ; L L r : q w N ;.;.:.y.>.;.;.u.h.h.h.h.u.;.;.",
":.:.>.y.>.:.:.y.a.a.>.:.>.C o o O O 4 w q : w r S ;.;.:.:.:.;.;.>.a.a.u.u.:.;.;.",
";.;.:.y.>.;.;.:.y.>.;.;.>.F X X o O : r q : w w S ;.;.;.;.;.;.;.:.y.>.;.;.;.;.;.",
";.;.:.y.y.:.;.:.>.>.;.;.:.D X . X O 4 r 0 ; q q S :.:.;.;.;.;.;.:.>.>.;.;.;.;.;.",
";.;.u.h.f.y.>.:.;.;.;.;.;.C O o . X : w 4 - 4 4 G h.f.i.>.>.;.;.;.;.;.;.;.:.>.>.",
";.;.u.h.h.y.y.:.;.;.;.;.;.C = = o X : w 4 = 4 4 S h.h.a.y.>.;.;.;.;.;.;.;.:.y.y.",
";.;.u.h.f.>.:.:.;.;.;.;.>.G O O O o ; w 4 O ; : B a.a.>.X.X.X.X.o.:.:.:.:.:.:.:.",
";.;.u.h.f.:.;.;.;.;.;.=.u.| X o o X ; q ; = * * m y.y.X.| | | | X.y.y.y.y.:.;.;.",
";.;.u.h.f.:.;.;.;.;.;.:.u.:., X X . = : = 1 : n X.>.>.X.| | | | o.y.y.>.>.:.;.;.",
";.;.:.y.y.;.;.;.;.;.f.f.a.u...-     O = : a J *.>. .| X.X.X.X.X.:.y.>.;.;.:.>.>.",
";.;.:.y.>.;.;.;.;.:.f.h.a.y.-.>     * e H K R :.>.| | X.;.;.;.;.:.y.>.;.;.:.y.y.",
";.;.:.:.:.;.;.:.:.>.f.h.i.:.=.6 & * H K T #.;.:.:.X.X.X.;.;.:.:.:.:.:.;.;.:.:.:.",
";.;.;.;.;.;.;.:.y.y.g.h.u.=.;.| n p T *.=.;.;.;.;.;.;.;.;.;.>.y.:.;.;.;.;.;.;.;.",
";.;.;.;.;.;.;.:.y.y.g.h.u.;.;.;.;.=.>.>.;.;.;.;.;.;.;.;.;.;.>.y.:.;.;.;.;.;.;.;."
};
