/* XPM */
static char *c3bbe9b676ef4f9b94f77490b1fedb6dtkFPnYU867wujhfm[] = {
/* columns rows colors chars-per-pixel */
"40 40 256 2 ",
"   c black",
".  c #010101",
"X  c #020202",
"o  c gray1",
"O  c #040404",
"+  c gray2",
"@  c #060606",
"#  c #070707",
"$  c gray3",
"%  c #090909",
"&  c gray4",
"*  c #0B0B0B",
"=  c #0C0C0C",
"-  c gray5",
";  c #0E0E0E",
":  c gray6",
">  c #101010",
",  c #111111",
"<  c gray7",
"1  c #131313",
"2  c gray8",
"3  c #151515",
"4  c #161616",
"5  c gray9",
"6  c #181818",
"7  c #191919",
"8  c gray10",
"9  c #1B1B1B",
"0  c gray11",
"q  c #1D1D1D",
"w  c #1E1E1E",
"e  c gray12",
"r  c #202020",
"t  c gray13",
"y  c #222222",
"u  c #232323",
"i  c gray14",
"p  c #252525",
"a  c gray15",
"s  c #272727",
"d  c #282828",
"f  c gray16",
"g  c #2A2A2A",
"h  c gray17",
"j  c #2C2C2C",
"k  c #2D2D2D",
"l  c gray18",
"z  c #2F2F2F",
"x  c gray19",
"c  c #313131",
"v  c #323232",
"b  c gray20",
"n  c #343434",
"m  c #353535",
"M  c gray21",
"N  c #373737",
"B  c gray22",
"V  c #393939",
"C  c #3A3A3A",
"Z  c gray23",
"A  c #3C3C3C",
"S  c gray24",
"D  c #3E3E3E",
"F  c #3F3F3F",
"G  c gray25",
"H  c #414141",
"J  c gray26",
"K  c #434343",
"L  c #444444",
"P  c gray27",
"I  c #464646",
"U  c gray28",
"Y  c #484848",
"T  c #494949",
"R  c gray29",
"E  c #4B4B4B",
"W  c #4C4C4C",
"Q  c gray30",
"!  c #4E4E4E",
"~  c gray31",
"^  c #505050",
"/  c #515151",
"(  c gray32",
")  c #535353",
"_  c gray33",
"`  c #555555",
"'  c #565656",
"]  c gray34",
"[  c #585858",
"{  c gray35",
"}  c #5A5A5A",
"|  c #5B5B5B",
" . c gray36",
".. c #5D5D5D",
"X. c gray37",
"o. c #5F5F5F",
"O. c #606060",
"+. c gray38",
"@. c #626262",
"#. c gray39",
"$. c #646464",
"%. c #656565",
"&. c gray40",
"*. c #676767",
"=. c #686868",
"-. c DimGray",
";. c #6A6A6A",
":. c gray42",
">. c #6C6C6C",
",. c #6D6D6D",
"<. c gray43",
"1. c #6F6F6F",
"2. c gray44",
"3. c #717171",
"4. c #727272",
"5. c gray45",
"6. c #747474",
"7. c gray46",
"8. c #767676",
"9. c #777777",
"0. c gray47",
"q. c #797979",
"w. c gray48",
"e. c #7B7B7B",
"r. c #7C7C7C",
"t. c gray49",
"y. c #7E7E7E",
"u. c gray50",
"i. c #808080",
"p. c #818181",
"a. c gray51",
"s. c #838383",
"d. c #848484",
"f. c gray52",
"g. c #868686",
"h. c gray53",
"j. c #888888",
"k. c #898989",
"l. c gray54",
"z. c #8B8B8B",
"x. c gray55",
"c. c #8D8D8D",
"v. c #8E8E8E",
"b. c gray56",
"n. c #909090",
"m. c gray57",
"M. c #929292",
"N. c #939393",
"B. c gray58",
"V. c #959595",
"C. c gray59",
"Z. c #979797",
"A. c #989898",
"S. c gray60",
"D. c #9A9A9A",
"F. c #9B9B9B",
"G. c gray61",
"H. c #9D9D9D",
"J. c gray62",
"K. c #9F9F9F",
"L. c #A0A0A0",
"P. c gray63",
"I. c #A2A2A2",
"U. c gray64",
"Y. c #A4A4A4",
"T. c #A5A5A5",
"R. c gray65",
"E. c #A7A7A7",
"W. c gray66",
"Q. c #A9A9A9",
"!. c #AAAAAA",
"~. c gray67",
"^. c #ACACAC",
"/. c gray68",
"(. c #AEAEAE",
"). c #AFAFAF",
"_. c gray69",
"`. c #B1B1B1",
"'. c #B2B2B2",
"]. c gray70",
"[. c #B4B4B4",
"{. c gray71",
"}. c #B6B6B6",
"|. c #B7B7B7",
" X c gray72",
".X c #B9B9B9",
"XX c gray73",
"oX c #BBBBBB",
"OX c #BCBCBC",
"+X c gray74",
"@X c gray",
"#X c gray75",
"$X c #C0C0C0",
"%X c #C1C1C1",
"&X c gray76",
"*X c #C3C3C3",
"=X c gray77",
"-X c #C5C5C5",
";X c #C6C6C6",
":X c gray78",
">X c #C8C8C8",
",X c gray79",
"<X c #CACACA",
"1X c #CBCBCB",
"2X c gray80",
"3X c #CDCDCD",
"4X c #CECECE",
"5X c gray81",
"6X c #D0D0D0",
"7X c gray82",
"8X c #D2D2D2",
"9X c LightGray",
"0X c gray83",
"qX c #D5D5D5",
"wX c gray84",
"eX c #D7D7D7",
"rX c #D8D8D8",
"tX c gray85",
"yX c #DADADA",
"uX c gray86",
"iX c gainsboro",
"pX c #DDDDDD",
"aX c gray87",
"sX c #DFDFDF",
"dX c gray88",
"fX c #E1E1E1",
"gX c #E2E2E2",
"hX c gray89",
"jX c #E4E4E4",
"kX c gray90",
"lX c #E6E6E6",
"zX c #E7E7E7",
"xX c gray91",
"cX c #E9E9E9",
"vX c #EAEAEA",
"bX c gray92",
"nX c #ECECEC",
"mX c gray93",
"MX c #EEEEEE",
"NX c #EFEFEF",
"BX c gray94",
"VX c #F1F1F1",
"CX c gray95",
"ZX c #F3F3F3",
"AX c #F4F4F4",
"SX c gray96",
"DX c #F6F6F6",
"FX c gray97",
"GX c #F8F8F8",
"HX c #F9F9F9",
"JX c gray98",
"KX c #FBFBFB",
"LX c gray99",
"PX c #FDFDFD",
"IX c #FEFEFE",
"UX c white",
/* pixels */
"Y.K.F.F.K.P.P.K.L.F.V.B.A.G.H.G.F.D.S.A.A.A.A.A.A.S.D.G.F.A.N.b.m.c.M.z.k.*...+.",
"U.H.C.V.Z.D.D.S.S.M.c.b.C.D.A.N.N.N.M.n.v.v.n.M.n.n.m.M.N.m.v.x.v.z.b.h.g.%. .o.",
"L.A.b.z.x.v.b.v.n.h.u.p.l.n.v.l.l.z.l.g.i.y.p.f.s.a.p.p.s.s.s.a.p.u.d.t.i.#.X.#.",
"K.Z.c.j.j.k.j.h.z.s.w.q.u.h.l.l.h.j.h.i.9.6.0.t.y.r.q.0.q.e.r.t.t.r.i.0.e.@.o.$.",
"J.C.c.h.g.g.f.s.f.s.p.u.i.s.h.l.f.h.g.p.q.9.r.p.d.p.t.r.r.y.u.u.p.u.p.6.8.X. .+.",
"Z.v.s.t.t.y.y.r.w.u.d.f.a.u.y.u.a.d.d.a.u.u.d.k.d.a.u.t.y.u.u.u.9.8.9.;.<.|  .+.",
"N.k.e.6.6.0.e.t.w.y.a.a.u.r.q.0.t.y.y.y.y.i.s.f.y.t.r.r.t.y.t.r.6.6.7.*.:.| X.#.",
"S.c.t.6.7.e.a.g.h.d.p.u.y.y.y.y.w.q.q.q.q.w.e.e.e.e.r.y.i.i.u.y.g.f.a.1.2...X.@.",
"S.n.r.4.q.y.i.h.x.f.p.p.p.y.e.r.0.0.q.q.q.q.q.w.9.q.e.u.a.s.a.p.k.h.s.,.<.X.+.$.",
"S.m.y.6.w.y.u.d.f.p.u.i.u.t.t.u.r.r.r.e.e.w.w.q.t.y.t.e.0.0.r.i.j.j.f.2.3.o.o.+.",
"A.m.y.7.w.r.e.u.e.w.e.t.e.q.t.a.g.g.g.g.f.f.f.d.g.g.a.w.5.5.e.a.h.j.g.4.5.o...X.",
"C.b.y.6.q.q.8.q.7.9.w.e.9.7.w.a.h.h.h.j.j.j.j.j.f.s.i.w.8.9.r.i.s.d.s.2.3.X.X.o.",
"V.b.u.8.w.w.7.0.9.0.e.r.9.5.0.p.u.u.u.y.y.t.t.t.e.q.0.q.r.y.t.e.y.u.t.:.,.X.O.#.",
"V.b.i.9.r.e.9.w.w.e.t.r.9.5.9.y.i.i.y.t.e.q.0.0.9.7.8.e.p.s.y.q.q.w.q.=.>.X.+.%.",
"N.c.t.7.w.e.9.w.q.q.q.0.6.2.4.0.t.t.r.r.e.w.q.q.9.7.7.9.w.e.q.8.8.0.q.-.<.o.+.$.",
"b.k.q.3.9.0.7.0.8.6.5.5.2.>.,.4.<.1.2.3.4.6.6.7.5.4.2.,.:.:.>.<.6.0.e.>.3.+.+.@.",
"v.d.0.4.6.8.8.6.3.2.,.>.,.,.>.:.2.>.*.3.9.3.>.9.2.<.:.&.#.$.;.1.5.5.4.2.>.*.@.o.",
"-.#...| X.O.O.o.+.O.......X.....] .. . .O.o...$.+.@.#.+.o.o.+.$.$.$.$.#.@.O.X...",
".. .|  .X.o.o.X.O.X.....X.o.X.X.X.&.$.| +.O.o.o.| ..O.+.+.O.o.o... .| } } | ..X.",
"@.#.#.#.#.#.@.@.#.@.+.@.#.$.#.#.#. .' ( &.%.$.+.-.;.;.:.;.;.;.;.,.:.=.&.&.*.;.>.",
"V.V.B.N.M.M.N.N.V.V.V.Z.S.S.Z.C.g.;.+.>.S.A.S.Z.B.m.x.k.j.l.c.v.Z.B.m.v.c.n.N.V.",
"N.M.n.n.M.N.N.N.M.B.C.S.F.D.C.N.j.+.{ -.U.J.K.F.U.J.Z.M.m.B.Z.A.F.D.Z.C.Z.S.G.J.",
"i.t.e.t.i.a.i.t.w.r.p.f.g.s.y.q.e. .} +.A.n.m.j.k.f.i.y.y.y.y.t.e.w.w.w.w.r.y.u.",
"t.q.9.w.y.y.q.5.5.8.r.i.a.y.9.3.,. .@.@.B.c.m.d.s.p.i.i.p.u.e.0.w.w.w.w.q.q.w.w.",
"w.e.e.e.e.e.0.7.7.5.w.i.p.f.a.6.<. . .@.m.C.k.l.p.y.t.u.i.t.r.t.t.r.w.0.0.q.e.r.",
"h.h.g.s.p.y.w.9.5.4.q.u.a.h.d.9.3.O.O.&.M.B.s.a.a.u.y.i.p.u.y.u.f.s.i.t.w.q.0.0.",
"l.k.h.f.p.t.q.0.9.7.r.p.a.g.s.8.3.+.@.=.B.B.p.y.a.t.e.t.u.y.y.p.k.h.s.u.e.q.9.9.",
"s.p.p.a.i.t.t.u.a.u.s.f.p.a.y.3.,.X.O.=.C.A.g.f.i.w.7.8.0.q.r.i.d.s.i.y.e.w.q.q.",
"i.y.u.a.p.u.a.j.l.h.k.j.p.i.e.<.>. .X.&.V.D.z.z.i.q.5.4.6.8.e.p.i.i.u.t.r.e.e.e.",
"u.r.t.i.u.r.i.k.l.j.l.j.i.y.w.<.,...X.$.N.Z.h.j.a.e.7.7.9.0.r.p.i.i.u.y.t.r.e.w.",
"t.q.q.r.w.8.e.f.k.h.k.g.t.e.0.>.>. .X.$.m.N.p.u.i.r.w.r.t.e.e.t.t.t.t.r.r.e.w.q.",
"t.q.q.t.w.8.e.h.k.h.k.f.w.9.6.-.=.{ ..$.m.n.r.q.r.w.r.p.a.t.q.0.9.9.0.q.w.w.q.q.",
"u.u.y.t.r.r.e.e.e.e.w.w.0.5.<.-.%.$.' $.b.C.f.g.g.g.s.y.r.p.g.h.e.q.y.g.f.q.4.5.",
"d.d.a.p.u.t.r.e.r.e.w.q.9.5.<.:.+.%.X.:.v.B.j.v.j.k.h.a.i.d.h.j.t.e.u.g.f.e.7.8.",
"r.r.e.w.0.9.8.8.9.8.7.6.6.5.3.1.%.%...:.x.m.d.f.a.d.s.u.t.u.p.i.0.7.0.t.r.7.3.5.",
",.,.<.<.<.1.1.1.2.1.1.3.6.8.8.8.5.&.[ *.j.v.w.<.9.w.w.9.6.8.8.6.2.,.<.3.3.>.;.>.",
"*.*.*.=.=.-.;.;.>.:.:.,.2.5.7.7.7.&.| &.t.p.2.#.,.3.4.1.,.<.,.;.;.=.*.-.=.&.&.=.",
"%.%.$.#.#.@.+.+.%.$.#.#.%.&.&.%.#.X.X.$.=.*.$.@.#.*.=.&.$.$.#.+.+.O.o.o.o.o.O.+.",
"@.@.+.O.o.X.X...O.o.....X... .| } [ ..O.} [ ..O...+.#.O.X.o.o...| | | } } |  ...",
"+.+.+.+.+.+.@.@.@.+.+.+.@.@.O.o.#.| ..+.....O...O.$.%.@.+.#.#.+.X.X.X.....o.O.O."
};
